<svg width="68" height="64" viewBox="0 0 68 64" fill="none" xmlns="http://www.w3.org/2000/svg">
<path fill-rule="evenodd" clip-rule="evenodd" d="M28.4999 9.50006C37.8887 9.50006 45.4999 17.1112 45.4999 26.5001C45.4999 35.8889 37.8887 43.5001 28.4999 43.5001C19.111 43.5001 11.4999 35.8889 11.4999 26.5001C11.4999 17.1112 19.111 9.50006 28.4999 9.50006ZM47.3451 39.689C49.9633 35.9549 51.4999 31.4069 51.4999 26.5001C51.4999 13.7975 41.2024 3.50006 28.4999 3.50006C15.7973 3.50006 5.49988 13.7975 5.49988 26.5001C5.49988 39.2026 15.7973 49.5001 28.4999 49.5001C33.4067 49.5001 37.9547 47.9635 41.6888 45.3453L55.6718 59.3282L55.8212 59.4708C57.3914 60.889 59.8149 60.8413 61.328 59.3282C62.8411 57.8151 62.8889 55.3916 61.4706 53.8214L61.328 53.6719L47.3451 39.689Z" fill="black"/>
</svg>
